<svg width="19" height="19" viewBox="0 0 19 19" fill="none" xmlns="http://www.w3.org/2000/svg">
<g id="simple-line-icons:calender" clip-path="url(#clip0_75_65)">
<path id="Vector" d="M17.5356 2.34555L12.9876 2.34557V1.21355C12.9876 0.899726 12.7334 0.645546 12.4196 0.645546C12.1058 0.645546 11.8516 0.899726 11.8516 1.21355V2.34529H7.30763V1.21355C7.30763 0.899726 7.05345 0.645546 6.73963 0.645546C6.42581 0.645546 6.17163 0.899726 6.17163 1.21355V2.34529H1.63161C1.00425 2.34529 0.495605 2.85393 0.495605 3.48129V17.6813C0.495605 18.3086 1.00425 18.8173 1.63161 18.8173H17.5356C18.163 18.8173 18.6716 18.3086 18.6716 17.6813V3.48129C18.6716 2.8542 18.163 2.34555 17.5356 2.34555ZM17.5356 17.6813H1.63161V3.48129H6.17163V4.05355C6.17163 4.36735 6.42581 4.62155 6.73963 4.62155C7.05345 4.62155 7.30763 4.36735 7.30763 4.05355V3.48157H11.8516V4.05383C11.8516 4.36765 12.1058 4.62183 12.4196 4.62183C12.7334 4.62183 12.9876 4.36765 12.9876 4.05383V3.48157H17.5356V17.6813ZM13.5596 9.72955H14.6956C15.0091 9.72955 15.2636 9.47509 15.2636 9.16155V8.02555C15.2636 7.71202 15.0091 7.45755 14.6956 7.45755H13.5596C13.2461 7.45755 12.9916 7.71202 12.9916 8.02555V9.16155C12.9916 9.47509 13.2461 9.72955 13.5596 9.72955ZM13.5596 14.2733H14.6956C15.0091 14.2733 15.2636 14.0191 15.2636 13.7053V12.5693C15.2636 12.2557 15.0091 12.0013 14.6956 12.0013H13.5596C13.2461 12.0013 12.9916 12.2557 12.9916 12.5693V13.7053C12.9916 14.0194 13.2461 14.2733 13.5596 14.2733ZM10.1516 12.0013H9.01561C8.70207 12.0013 8.44761 12.2557 8.44761 12.5693V13.7053C8.44761 14.0191 8.70207 14.2733 9.01561 14.2733H10.1516C10.4651 14.2733 10.7196 14.0191 10.7196 13.7053V12.5693C10.7196 12.256 10.4651 12.0013 10.1516 12.0013ZM10.1516 7.45755H9.01561C8.70207 7.45755 8.44761 7.71202 8.44761 8.02555V9.16155C8.44761 9.47509 8.70207 9.72955 9.01561 9.72955H10.1516C10.4651 9.72955 10.7196 9.47509 10.7196 9.16155V8.02555C10.7196 7.71173 10.4651 7.45755 10.1516 7.45755ZM5.60761 7.45755H4.47161C4.15807 7.45755 3.90361 7.71202 3.90361 8.02555V9.16155C3.90361 9.47509 4.15807 9.72955 4.47161 9.72955H5.60761C5.92114 9.72955 6.17561 9.47509 6.17561 9.16155V8.02555C6.17561 7.71173 5.92114 7.45755 5.60761 7.45755ZM5.60761 12.0013H4.47161C4.15807 12.0013 3.90361 12.2557 3.90361 12.5693V13.7053C3.90361 14.0191 4.15807 14.2733 4.47161 14.2733H5.60761C5.92114 14.2733 6.17561 14.0191 6.17561 13.7053V12.5693C6.17561 12.256 5.92114 12.0013 5.60761 12.0013Z" fill="#CCFF00"/>
</g>
<defs>
<clipPath id="clip0_75_65">
<rect width="18.176" height="18.176" fill="white" transform="translate(0.495605 0.643929)"/>
</clipPath>
</defs>
</svg>
